PathFileType	4	(X/Y/Z)	C:\Users\Willi\Documents\GitHub\processC3D_GUI\exampleC3Dfiles\fws_end01_R4\marker_experimental.trc
DataRate	CameraRate	NumFrames	NumMarkers	Units	OrigDataRate	OrigDataStartFrame	OrigNumFrames
2.000000e+02	2.000000e+02	10	51	m	2.000000e+02	80	318
Frame#	Time	CLAV			GLAB			LANK			LASI			LELB			LFIN			LFMH			LHEE			LKNE			LMAS			LPEL			LPSI			LSHO			LTHAD			LTHAP			LTHI			LTIAD			LTIAP			LTIB			LTOE			LVMH			LWRA			LWRB			RANK			RASI			RBAK			RELB			RFIN			RFMH			RHEE			RKNE			RMAS			RPEL			RPSI			RSHO			RTHAD			RTHAP			RTHI			RTIAD			RTIAP			RTIB			RTOE			RVMH			RWRA			RWRB			SACR			T10			T2			not_labelled_48			not_labelled_49			not_labelled_50		
		X1	Y1	Z1	X2	Y2	Z2	X3	Y3	Z3	X4	Y4	Z4	X5	Y5	Z5	X6	Y6	Z6	X7	Y7	Z7	X8	Y8	Z8	X9	Y9	Z9	X10	Y10	Z10	X11	Y11	Z11	X12	Y12	Z12	X13	Y13	Z13	X14	Y14	Z14	X15	Y15	Z15	X16	Y16	Z16	X17	Y17	Z17	X18	Y18	Z18	X19	Y19	Z19	X20	Y20	Z20	X21	Y21	Z21	X22	Y22	Z22	X23	Y23	Z23	X24	Y24	Z24	X25	Y25	Z25	X26	Y26	Z26	X27	Y27	Z27	X28	Y28	Z28	X29	Y29	Z29	X30	Y30	Z30	X31	Y31	Z31	X32	Y32	Z32	X33	Y33	Z33	X34	Y34	Z34	X35	Y35	Z35	X36	Y36	Z36	X37	Y37	Z37	X38	Y38	Z38	X39	Y39	Z39	X40	Y40	Z40	X41	Y41	Z41	X42	Y42	Z42	X43	Y43	Z43	X44	Y44	Z44	X45	Y45	Z45	X46	Y46	Z46	X47	Y47	Z47	X48	Y48	Z48	X49	Y49	Z49	X50	Y50	Z50	X51	Y51	Z51
80	3.94000	0.513	1.373	0.365	0.642	1.578	0.392	0.094	0.271	0.262	0.458	0.968	0.234	0.449	1.089	0.129	0.575	0.790	0.108	0.115	0.071	0.338	0.061	0.324	0.306	0.444	0.482	0.220	0.509	1.550	0.313	0.391	0.989	0.222	0.319	0.996	0.328	0.463	1.409	0.210	0.453	0.623	0.206	0.432	0.685	0.203	0.403	0.627	0.213	0.237	0.305	0.245	0.283	0.348	0.228	0.217	0.349	0.231	0.116	0.108	0.306	0.111	0.076	0.280	0.565	0.858	0.134	0.520	0.851	0.096	0.551	0.098	0.449	0.500	0.989	0.463	0.337	1.337	0.470	0.407	1.058	0.595	0.528	0.777	0.639	0.757	0.070	0.389	0.494	0.082	0.394	0.557	0.520	0.503	0.505	1.537	0.457	0.452	1.041	0.495	0.335	1.013	0.431	0.474	1.385	0.535	0.537	0.665	0.528	0.521	0.730	0.538	0.486	0.673	0.525	0.575	0.250	0.476	0.566	0.314	0.490	0.526	0.262	0.482	0.710	0.085	0.409	0.739	0.061	0.446	0.534	0.822	0.602	0.468	0.807	0.638	0.327	1.035	0.374	0.320	1.219	0.378	0.380	1.437	0.384	0.000	0.011	-0.000	0.719	0.012	-0.006	-0.001	0.011	0.762
81	3.94500	0.513	1.374	0.366	0.642	1.579	0.392	0.101	0.273	0.262	0.457	0.969	0.234	0.447	1.090	0.129	0.572	0.791	0.108	0.120	0.073	0.337	0.068	0.326	0.306	0.451	0.484	0.221	0.509	1.551	0.314	0.390	0.990	0.222	0.318	0.996	0.328	0.462	1.410	0.211	0.458	0.624	0.207	0.435	0.686	0.204	0.407	0.627	0.214	0.244	0.306	0.246	0.290	0.350	0.228	0.224	0.350	0.231	0.122	0.111	0.306	0.117	0.078	0.280	0.562	0.858	0.134	0.517	0.852	0.095	0.545	0.099	0.449	0.500	0.990	0.463	0.337	1.337	0.471	0.408	1.058	0.596	0.530	0.778	0.639	0.751	0.070	0.389	0.487	0.082	0.394	0.554	0.521	0.502	0.504	1.537	0.458	0.452	1.042	0.495	0.334	1.014	0.431	0.474	1.385	0.535	0.536	0.666	0.528	0.520	0.731	0.537	0.485	0.674	0.526	0.570	0.250	0.476	0.562	0.314	0.490	0.521	0.262	0.482	0.704	0.085	0.409	0.733	0.061	0.446	0.536	0.823	0.602	0.470	0.808	0.638	0.327	1.036	0.374	0.319	1.220	0.379	0.379	1.438	0.385	0.000	0.011	-0.000	0.719	0.012	-0.006	-0.001	0.011	0.762
82	3.95000	0.512	1.375	0.366	0.642	1.580	0.393	0.107	0.276	0.261	0.456	0.970	0.234	0.445	1.091	0.129	0.568	0.791	0.107	0.127	0.075	0.336	0.074	0.328	0.306	0.457	0.485	0.221	0.509	1.552	0.314	0.389	0.990	0.222	0.317	0.997	0.328	0.462	1.411	0.211	0.462	0.625	0.207	0.438	0.687	0.204	0.411	0.628	0.215	0.251	0.308	0.246	0.297	0.351	0.228	0.231	0.352	0.231	0.128	0.113	0.305	0.124	0.080	0.279	0.558	0.859	0.134	0.513	0.853	0.095	0.539	0.099	0.449	0.499	0.991	0.463	0.337	1.338	0.472	0.409	1.058	0.596	0.533	0.779	0.640	0.745	0.070	0.389	0.481	0.082	0.395	0.551	0.521	0.502	0.504	1.538	0.459	0.452	1.043	0.495	0.334	1.015	0.432	0.474	1.386	0.535	0.534	0.667	0.528	0.519	0.732	0.537	0.483	0.675	0.526	0.565	0.250	0.475	0.557	0.314	0.490	0.516	0.262	0.482	0.698	0.085	0.409	0.727	0.061	0.446	0.538	0.824	0.602	0.473	0.809	0.639	0.326	1.037	0.374	0.318	1.221	0.379	0.379	1.439	0.386	0.000	0.011	-0.000	0.719	0.012	-0.006	-0.001	0.011	0.762
83	3.95500	0.512	1.375	0.366	0.641	1.581	0.393	0.114	0.278	0.261	0.455	0.971	0.235	0.443	1.092	0.129	0.564	0.792	0.107	0.134	0.077	0.336	0.081	0.330	0.306	0.464	0.487	0.222	0.508	1.552	0.315	0.389	0.991	0.223	0.317	0.998	0.329	0.461	1.412	0.211	0.465	0.627	0.208	0.441	0.688	0.205	0.415	0.629	0.216	0.258	0.310	0.247	0.304	0.353	0.229	0.238	0.353	0.231	0.136	0.116	0.305	0.132	0.082	0.278	0.555	0.859	0.133	0.509	0.854	0.095	0.533	0.099	0.449	0.499	0.992	0.463	0.337	1.339	0.472	0.410	1.059	0.597	0.535	0.780	0.640	0.739	0.070	0.389	0.475	0.082	0.395	0.547	0.521	0.502	0.504	1.539	0.459	0.451	1.044	0.495	0.333	1.016	0.432	0.474	1.386	0.535	0.532	0.667	0.528	0.518	0.732	0.537	0.482	0.676	0.526	0.560	0.250	0.475	0.553	0.314	0.489	0.511	0.263	0.483	0.691	0.084	0.408	0.720	0.061	0.446	0.540	0.825	0.602	0.475	0.809	0.639	0.325	1.038	0.374	0.318	1.222	0.380	0.379	1.440	0.387	0.000	0.011	-0.000	0.719	0.012	-0.006	-0.001	0.011	0.762
84	3.96000	0.512	1.376	0.366	0.641	1.582	0.394	0.121	0.280	0.261	0.454	0.972	0.235	0.440	1.093	0.130	0.560	0.792	0.107	0.142	0.079	0.335	0.087	0.332	0.306	0.470	0.489	0.222	0.508	1.553	0.316	0.388	0.992	0.223	0.316	0.999	0.329	0.460	1.413	0.212	0.469	0.628	0.208	0.443	0.689	0.206	0.419	0.629	0.217	0.265	0.312	0.247	0.311	0.354	0.229	0.245	0.355	0.231	0.144	0.118	0.304	0.141	0.084	0.278	0.552	0.860	0.133	0.506	0.854	0.095	0.527	0.099	0.449	0.498	0.993	0.463	0.337	1.340	0.473	0.410	1.059	0.598	0.537	0.781	0.640	0.732	0.069	0.389	0.469	0.082	0.395	0.544	0.521	0.502	0.504	1.539	0.460	0.451	1.045	0.495	0.333	1.017	0.432	0.474	1.386	0.536	0.531	0.668	0.528	0.516	0.733	0.536	0.480	0.677	0.526	0.555	0.250	0.475	0.548	0.314	0.489	0.506	0.263	0.483	0.685	0.084	0.408	0.714	0.061	0.446	0.541	0.826	0.603	0.477	0.810	0.640	0.325	1.039	0.374	0.317	1.222	0.380	0.378	1.441	0.387	0.000	0.011	-0.000	0.719	0.012	-0.006	-0.001	0.011	0.762
85	3.96500	0.511	1.377	0.366	0.641	1.583	0.394	0.128	0.282	0.262	0.453	0.973	0.235	0.438	1.094	0.130	0.556	0.793	0.106	0.151	0.081	0.335	0.093	0.333	0.306	0.476	0.491	0.223	0.508	1.554	0.316	0.387	0.993	0.223	0.315	0.999	0.329	0.460	1.414	0.212	0.473	0.630	0.209	0.446	0.690	0.207	0.422	0.630	0.218	0.271	0.313	0.248	0.318	0.356	0.230	0.252	0.357	0.231	0.153	0.120	0.304	0.150	0.086	0.277	0.548	0.860	0.132	0.502	0.855	0.095	0.520	0.099	0.448	0.498	0.994	0.463	0.337	1.340	0.473	0.411	1.060	0.599	0.539	0.782	0.641	0.726	0.069	0.389	0.462	0.082	0.395	0.540	0.521	0.502	0.504	1.540	0.461	0.450	1.046	0.495	0.332	1.018	0.432	0.474	1.387	0.536	0.529	0.668	0.528	0.515	0.733	0.536	0.478	0.677	0.527	0.550	0.250	0.475	0.543	0.314	0.489	0.501	0.263	0.483	0.679	0.084	0.408	0.708	0.061	0.446	0.543	0.827	0.603	0.479	0.811	0.640	0.324	1.039	0.374	0.316	1.223	0.380	0.378	1.441	0.388	0.000	0.011	-0.000	0.719	0.012	-0.006	-0.001	0.011	0.762
86	3.97000	0.511	1.378	0.367	0.640	1.584	0.395	0.134	0.283	0.262	0.452	0.974	0.235	0.436	1.095	0.130	0.552	0.793	0.106	0.161	0.083	0.334	0.098	0.334	0.306	0.482	0.493	0.224	0.507	1.555	0.317	0.386	0.994	0.223	0.314	1.000	0.329	0.459	1.415	0.212	0.476	0.632	0.209	0.448	0.692	0.208	0.426	0.631	0.218	0.278	0.315	0.248	0.325	0.358	0.230	0.259	0.358	0.232	0.162	0.122	0.303	0.160	0.089	0.277	0.545	0.861	0.132	0.498	0.856	0.095	0.514	0.099	0.448	0.497	0.995	0.463	0.337	1.341	0.474	0.412	1.060	0.599	0.542	0.783	0.641	0.720	0.069	0.389	0.456	0.082	0.395	0.537	0.521	0.502	0.503	1.540	0.461	0.449	1.047	0.495	0.331	1.019	0.432	0.474	1.388	0.536	0.526	0.669	0.527	0.513	0.734	0.536	0.476	0.678	0.527	0.545	0.250	0.475	0.539	0.314	0.489	0.496	0.264	0.483	0.673	0.084	0.408	0.702	0.060	0.446	0.545	0.828	0.603	0.481	0.812	0.641	0.323	1.040	0.374	0.315	1.224	0.381	0.378	1.442	0.388	0.000	0.011	-0.000	0.719	0.012	-0.006	-0.001	0.011	0.762
87	3.97500	0.510	1.378	0.367	0.640	1.584	0.395	0.141	0.285	0.262	0.451	0.974	0.235	0.433	1.097	0.130	0.549	0.794	0.105	0.171	0.084	0.333	0.104	0.334	0.306	0.488	0.495	0.225	0.507	1.556	0.317	0.385	0.994	0.223	0.314	1.001	0.329	0.459	1.416	0.212	0.480	0.634	0.210	0.451	0.693	0.208	0.429	0.632	0.219	0.285	0.317	0.248	0.331	0.360	0.231	0.265	0.360	0.232	0.171	0.124	0.303	0.170	0.091	0.276	0.541	0.862	0.132	0.495	0.857	0.095	0.508	0.099	0.448	0.497	0.996	0.463	0.336	1.342	0.474	0.413	1.061	0.600	0.544	0.784	0.641	0.714	0.069	0.389	0.450	0.082	0.395	0.533	0.521	0.502	0.503	1.541	0.462	0.449	1.048	0.495	0.331	1.020	0.432	0.474	1.388	0.536	0.524	0.669	0.527	0.512	0.734	0.536	0.474	0.679	0.527	0.540	0.250	0.475	0.534	0.314	0.489	0.491	0.264	0.483	0.667	0.084	0.408	0.696	0.060	0.446	0.547	0.829	0.603	0.483	0.812	0.641	0.323	1.041	0.374	0.315	1.225	0.381	0.377	1.443	0.389	0.000	0.011	-0.000	0.719	0.012	-0.006	-0.001	0.011	0.762
88	3.98000	0.510	1.379	0.367	0.640	1.585	0.396	0.148	0.286	0.262	0.450	0.975	0.236	0.431	1.098	0.131	0.545	0.794	0.105	0.182	0.086	0.333	0.109	0.334	0.306	0.494	0.498	0.225	0.506	1.557	0.318	0.384	0.995	0.223	0.313	1.002	0.329	0.458	1.417	0.212	0.483	0.635	0.210	0.453	0.694	0.209	0.433	0.633	0.220	0.292	0.318	0.249	0.338	0.362	0.231	0.272	0.362	0.233	0.181	0.126	0.303	0.181	0.093	0.275	0.538	0.862	0.131	0.491	0.858	0.095	0.502	0.099	0.448	0.496	0.997	0.463	0.336	1.342	0.474	0.414	1.061	0.601	0.546	0.786	0.641	0.708	0.069	0.389	0.444	0.082	0.395	0.530	0.521	0.501	0.503	1.541	0.462	0.448	1.049	0.495	0.330	1.021	0.432	0.473	1.389	0.536	0.522	0.670	0.527	0.510	0.734	0.535	0.472	0.679	0.527	0.535	0.250	0.475	0.529	0.314	0.489	0.486	0.264	0.483	0.660	0.084	0.408	0.690	0.060	0.446	0.549	0.830	0.603	0.485	0.813	0.642	0.322	1.042	0.375	0.314	1.226	0.381	0.377	1.444	0.389	0.000	0.011	-0.000	0.719	0.011	-0.006	-0.001	0.011	0.762
89	3.98500	0.509	1.380	0.367	0.639	1.586	0.396	0.155	0.286	0.262	0.450	0.976	0.236	0.428	1.099	0.131	0.541	0.795	0.105	0.193	0.088	0.332	0.115	0.333	0.306	0.499	0.500	0.226	0.506	1.558	0.318	0.383	0.996	0.223	0.312	1.003	0.329	0.458	1.418	0.213	0.486	0.637	0.211	0.455	0.696	0.210	0.436	0.635	0.221	0.299	0.320	0.249	0.344	0.364	0.232	0.278	0.363	0.234	0.192	0.127	0.302	0.192	0.094	0.275	0.534	0.863	0.131	0.487	0.859	0.095	0.496	0.099	0.448	0.495	0.998	0.464	0.336	1.343	0.475	0.415	1.062	0.601	0.548	0.787	0.642	0.702	0.069	0.388	0.438	0.082	0.395	0.526	0.521	0.501	0.502	1.542	0.463	0.448	1.050	0.495	0.329	1.022	0.432	0.473	1.389	0.536	0.519	0.670	0.527	0.508	0.734	0.535	0.470	0.680	0.527	0.529	0.250	0.474	0.524	0.314	0.489	0.481	0.264	0.483	0.654	0.084	0.408	0.684	0.060	0.446	0.550	0.831	0.603	0.487	0.814	0.642	0.321	1.043	0.375	0.313	1.227	0.381	0.376	1.445	0.390	0.000	0.011	-0.000	0.719	0.011	-0.006	-0.001	0.011	0.762
